<mxfile host="app.diagrams.net" modified="2024-05-17T15:05:41.441Z" agent="Mozilla/5.0 (Windows NT 10.0; Win64; x64) AppleWebKit/537.36 (KHTML, like Gecko) Chrome/124.0.0.0 Safari/537.36 Edg/124.0.0.0" etag="YJEWF_B7VxjLs-3qk2WH" version="24.4.0" type="device">
  <diagram name="Page-1" id="ou8nl3nTqyNiCQRrLd7I">
    <mxGraphModel dx="2131" dy="2107" grid="1" gridSize="10" guides="1" tooltips="1" connect="1" arrows="1" fold="1" page="1" pageScale="1" pageWidth="850" pageHeight="1100" math="0" shadow="0">
      <root>
        <mxCell id="0" />
        <mxCell id="1" parent="0" />
        <mxCell id="09qTs4qGiX6TiiNOw2e3-7" value="" style="strokeWidth=1;shadow=0;dashed=0;align=center;html=1;shape=mxgraph.mockup.containers.browserWindow;rSize=0;strokeColor=#666666;strokeColor2=#008cff;strokeColor3=#c4c4c4;mainText=,;recursiveResize=0;" parent="1" vertex="1">
          <mxGeometry x="330" y="-440" width="1010" height="630" as="geometry" />
        </mxCell>
        <mxCell id="09qTs4qGiX6TiiNOw2e3-8" value="CIMS-Home" style="strokeWidth=1;shadow=0;dashed=0;align=center;html=1;shape=mxgraph.mockup.containers.anchor;fontSize=17;fontColor=#666666;align=left;whiteSpace=wrap;" parent="09qTs4qGiX6TiiNOw2e3-7" vertex="1">
          <mxGeometry x="60" y="12" width="110" height="26" as="geometry" />
        </mxCell>
        <mxCell id="09qTs4qGiX6TiiNOw2e3-9" value="https://www.cims.com" style="strokeWidth=1;shadow=0;dashed=0;align=center;html=1;shape=mxgraph.mockup.containers.anchor;rSize=0;fontSize=17;fontColor=#666666;align=left;" parent="09qTs4qGiX6TiiNOw2e3-7" vertex="1">
          <mxGeometry x="130" y="60" width="250" height="26" as="geometry" />
        </mxCell>
        <mxCell id="09qTs4qGiX6TiiNOw2e3-23" value="" style="strokeWidth=1;shadow=0;dashed=0;align=center;html=1;shape=mxgraph.mockup.text.rrect;rSize=0;strokeColor=#666666;" parent="09qTs4qGiX6TiiNOw2e3-7" vertex="1">
          <mxGeometry x="200" y="120" width="500" height="25" as="geometry" />
        </mxCell>
        <mxCell id="09qTs4qGiX6TiiNOw2e3-24" value="Pricing" style="strokeColor=inherit;fillColor=inherit;gradientColor=inherit;strokeWidth=1;shadow=0;dashed=0;align=center;html=1;shape=mxgraph.mockup.text.rrect;rSize=0;fontSize=17;fontColor=#0000ff;whiteSpace=wrap;" parent="09qTs4qGiX6TiiNOw2e3-23" vertex="1">
          <mxGeometry x="125" width="125" height="25" as="geometry" />
        </mxCell>
        <mxCell id="09qTs4qGiX6TiiNOw2e3-25" value="Compare" style="strokeColor=inherit;fillColor=inherit;gradientColor=inherit;strokeWidth=1;shadow=0;dashed=0;align=center;html=1;shape=mxgraph.mockup.text.rrect;rSize=0;fontSize=17;fontColor=#0000ff;whiteSpace=wrap;" parent="09qTs4qGiX6TiiNOw2e3-23" vertex="1">
          <mxGeometry x="250" width="125" height="25" as="geometry" />
        </mxCell>
        <mxCell id="09qTs4qGiX6TiiNOw2e3-26" value="Contact Us" style="strokeColor=inherit;fillColor=inherit;gradientColor=inherit;strokeWidth=1;shadow=0;dashed=0;align=center;html=1;shape=mxgraph.mockup.text.rrect;rSize=0;fontSize=17;fontColor=#0000ff;whiteSpace=wrap;" parent="09qTs4qGiX6TiiNOw2e3-23" vertex="1">
          <mxGeometry x="375" width="125" height="25" as="geometry" />
        </mxCell>
        <mxCell id="09qTs4qGiX6TiiNOw2e3-27" value="Services" style="strokeWidth=1;shadow=0;dashed=0;align=center;html=1;shape=mxgraph.mockup.text.rrect;rSize=0;fontSize=17;fontColor=#ffffff;fillColor=#008cff;strokeColor=#008cff;whiteSpace=wrap;" parent="09qTs4qGiX6TiiNOw2e3-23" vertex="1">
          <mxGeometry width="125" height="25" as="geometry" />
        </mxCell>
        <mxCell id="09qTs4qGiX6TiiNOw2e3-28" value="" style="verticalLabelPosition=bottom;shadow=0;dashed=0;align=center;html=1;verticalAlign=top;strokeWidth=1;shape=mxgraph.mockup.graphics.simpleIcon;strokeColor=#999999;" parent="09qTs4qGiX6TiiNOw2e3-7" vertex="1">
          <mxGeometry x="30" y="120" width="80" height="50" as="geometry" />
        </mxCell>
        <mxCell id="09qTs4qGiX6TiiNOw2e3-29" value="&lt;b&gt;&lt;font style=&quot;font-size: 14px;&quot; face=&quot;Times New Roman&quot;&gt;CIMS&lt;/font&gt;&lt;/b&gt;" style="text;html=1;align=center;verticalAlign=middle;whiteSpace=wrap;rounded=0;" parent="09qTs4qGiX6TiiNOw2e3-7" vertex="1">
          <mxGeometry x="40" y="130" width="60" height="30" as="geometry" />
        </mxCell>
        <mxCell id="09qTs4qGiX6TiiNOw2e3-30" value="" style="verticalLabelPosition=bottom;shadow=0;dashed=0;align=center;html=1;verticalAlign=top;strokeWidth=1;shape=mxgraph.mockup.graphics.simpleIcon;strokeColor=#999999;" parent="09qTs4qGiX6TiiNOw2e3-7" vertex="1">
          <mxGeometry x="280" y="210" width="580" height="240" as="geometry" />
        </mxCell>
        <mxCell id="09qTs4qGiX6TiiNOw2e3-31" value="&lt;font style=&quot;font-size: 14px;&quot; face=&quot;Times New Roman&quot;&gt;an image of a car&lt;/font&gt;" style="text;html=1;align=center;verticalAlign=middle;whiteSpace=wrap;rounded=0;" parent="09qTs4qGiX6TiiNOw2e3-7" vertex="1">
          <mxGeometry x="460" y="277.5" width="220" height="85" as="geometry" />
        </mxCell>
        <mxCell id="09qTs4qGiX6TiiNOw2e3-33" value="" style="verticalLabelPosition=bottom;shadow=0;dashed=0;align=center;html=1;verticalAlign=top;strokeWidth=1;shape=mxgraph.mockup.navigation.pageControl;fillColor=#999999;strokeColor=#ddeeff;" parent="09qTs4qGiX6TiiNOw2e3-7" vertex="1">
          <mxGeometry x="520" y="410" width="100" height="30" as="geometry" />
        </mxCell>
        <mxCell id="09qTs4qGiX6TiiNOw2e3-34" value="Lorem ipsum dolor sit amet, consectetur adipisicing elit, sed do eiusmod tempor incididunt ut labore et dolore magna aliqua. Ut enim ad minim veniam, quis nostrud exercitation ullamco laboris nisi ut aliquip ex ea commodo consequat.&amp;nbsp;" style="text;spacingTop=-5;whiteSpace=wrap;html=1;align=left;fontSize=12;fontFamily=Helvetica;fillColor=none;strokeColor=none;" parent="09qTs4qGiX6TiiNOw2e3-7" vertex="1">
          <mxGeometry x="30" y="280" width="200" height="130" as="geometry" />
        </mxCell>
        <mxCell id="09qTs4qGiX6TiiNOw2e3-40" value="Log in" style="strokeWidth=1;shadow=0;dashed=0;align=center;html=1;shape=mxgraph.mockup.buttons.button;strokeColor=#666666;fontColor=#ffffff;mainText=;buttonStyle=round;fontSize=17;fontStyle=1;fillColor=#008cff;whiteSpace=wrap;" parent="09qTs4qGiX6TiiNOw2e3-7" vertex="1">
          <mxGeometry x="820" y="112.5" width="80" height="40" as="geometry" />
        </mxCell>
        <mxCell id="09qTs4qGiX6TiiNOw2e3-41" value="Sign up" style="strokeWidth=1;shadow=0;dashed=0;align=center;html=1;shape=mxgraph.mockup.buttons.button;strokeColor=#666666;fontColor=#ffffff;mainText=;buttonStyle=round;fontSize=17;fontStyle=1;fillColor=#008cff;whiteSpace=wrap;" parent="09qTs4qGiX6TiiNOw2e3-7" vertex="1">
          <mxGeometry x="910" y="112.5" width="80" height="40" as="geometry" />
        </mxCell>
        <mxCell id="09qTs4qGiX6TiiNOw2e3-42" value="Learn more" style="strokeWidth=1;shadow=0;dashed=0;align=center;html=1;shape=mxgraph.mockup.buttons.button;strokeColor=#666666;fontColor=#ffffff;mainText=;buttonStyle=round;fontSize=17;fontStyle=1;fillColor=#008cff;whiteSpace=wrap;" parent="09qTs4qGiX6TiiNOw2e3-7" vertex="1">
          <mxGeometry x="50" y="405" width="100" height="40" as="geometry" />
        </mxCell>
        <mxCell id="09qTs4qGiX6TiiNOw2e3-53" value="" style="verticalLabelPosition=bottom;shadow=0;dashed=0;align=center;html=1;verticalAlign=top;strokeWidth=1;shape=mxgraph.mockup.graphics.simpleIcon;strokeColor=#999999;" parent="09qTs4qGiX6TiiNOw2e3-7" vertex="1">
          <mxGeometry y="500" width="1010" height="130" as="geometry" />
        </mxCell>
        <mxCell id="09qTs4qGiX6TiiNOw2e3-54" value="Footer section 1&amp;nbsp;" style="text;html=1;align=center;verticalAlign=middle;whiteSpace=wrap;rounded=0;" parent="09qTs4qGiX6TiiNOw2e3-7" vertex="1">
          <mxGeometry x="140" y="540" width="80" height="30" as="geometry" />
        </mxCell>
        <mxCell id="09qTs4qGiX6TiiNOw2e3-58" value="Footer section 2" style="text;html=1;align=center;verticalAlign=middle;whiteSpace=wrap;rounded=0;" parent="09qTs4qGiX6TiiNOw2e3-7" vertex="1">
          <mxGeometry x="340" y="540" width="80" height="30" as="geometry" />
        </mxCell>
        <mxCell id="09qTs4qGiX6TiiNOw2e3-57" value="Footer section 3&amp;nbsp;" style="text;html=1;align=center;verticalAlign=middle;whiteSpace=wrap;rounded=0;" parent="09qTs4qGiX6TiiNOw2e3-7" vertex="1">
          <mxGeometry x="530" y="530" width="80" height="30" as="geometry" />
        </mxCell>
        <mxCell id="09qTs4qGiX6TiiNOw2e3-56" value="Footer section 4" style="text;html=1;align=center;verticalAlign=middle;whiteSpace=wrap;rounded=0;" parent="09qTs4qGiX6TiiNOw2e3-7" vertex="1">
          <mxGeometry x="790" y="530" width="80" height="30" as="geometry" />
        </mxCell>
        <mxCell id="09qTs4qGiX6TiiNOw2e3-55" value="Footer section copyright" style="text;html=1;align=center;verticalAlign=middle;whiteSpace=wrap;rounded=0;" parent="09qTs4qGiX6TiiNOw2e3-7" vertex="1">
          <mxGeometry x="280" y="580" width="480" height="30" as="geometry" />
        </mxCell>
        <mxCell id="09qTs4qGiX6TiiNOw2e3-10" value="&lt;font face=&quot;Times New Roman&quot; style=&quot;font-size: 24px;&quot;&gt;&lt;b&gt;Landing Page&lt;/b&gt;&lt;/font&gt;" style="text;html=1;align=center;verticalAlign=middle;whiteSpace=wrap;rounded=0;" parent="1" vertex="1">
          <mxGeometry x="360" y="-500" width="850" height="30" as="geometry" />
        </mxCell>
        <mxCell id="VM5_dwGP6nj6GCOUaIYR-1" style="edgeStyle=orthogonalEdgeStyle;rounded=0;orthogonalLoop=1;jettySize=auto;html=1;exitX=0.5;exitY=1;exitDx=0;exitDy=0;" edge="1" parent="1" source="09qTs4qGiX6TiiNOw2e3-10" target="09qTs4qGiX6TiiNOw2e3-10">
          <mxGeometry relative="1" as="geometry" />
        </mxCell>
        <mxCell id="VM5_dwGP6nj6GCOUaIYR-2" value="" style="html=1;verticalLabelPosition=bottom;labelBackgroundColor=#ffffff;verticalAlign=top;shadow=0;dashed=0;strokeWidth=1;shape=mxgraph.ios7.misc.iphone;strokeColor=#c0c0c0;" vertex="1" parent="1">
          <mxGeometry x="450" y="360" width="200" height="400" as="geometry" />
        </mxCell>
        <mxCell id="VM5_dwGP6nj6GCOUaIYR-3" value="" style="html=1;verticalLabelPosition=bottom;labelBackgroundColor=#ffffff;verticalAlign=top;shadow=0;dashed=0;strokeWidth=1;shape=mxgraph.ios7.misc.ipad10inch;strokeColor=#c0c0c0;" vertex="1" parent="1">
          <mxGeometry x="830" y="220" width="488" height="693" as="geometry" />
        </mxCell>
        <mxCell id="VM5_dwGP6nj6GCOUaIYR-5" value="cims.com" style="html=1;strokeWidth=1;shadow=0;dashed=0;shape=mxgraph.ios7ui.url;fillColor=#e0e0e0;strokeColor=#c0c0c0;buttonText=;strokeColor2=#222222;fontColor=#222222;fontSize=8;spacingTop=2;align=center;whiteSpace=wrap;" vertex="1" parent="1">
          <mxGeometry x="466" y="420" width="165" height="12.5" as="geometry" />
        </mxCell>
        <mxCell id="VM5_dwGP6nj6GCOUaIYR-6" value="" style="verticalLabelPosition=bottom;shadow=0;dashed=0;align=center;html=1;verticalAlign=top;strokeWidth=1;shape=mxgraph.mockup.graphics.simpleIcon;strokeColor=#999999;" vertex="1" parent="1">
          <mxGeometry x="501" y="500" width="90" height="60" as="geometry" />
        </mxCell>
        <mxCell id="VM5_dwGP6nj6GCOUaIYR-7" value="" style="verticalLabelPosition=bottom;shadow=0;dashed=0;align=center;html=1;verticalAlign=top;strokeWidth=1;shape=mxgraph.mockup.graphics.simpleIcon;strokeColor=#999999;" vertex="1" parent="1">
          <mxGeometry x="466" y="432.5" width="30" height="50" as="geometry" />
        </mxCell>
        <mxCell id="VM5_dwGP6nj6GCOUaIYR-8" value="&lt;b&gt;&lt;font style=&quot;font-size: 14px;&quot; face=&quot;Times New Roman&quot;&gt;CIMS&lt;/font&gt;&lt;/b&gt;" style="text;html=1;align=center;verticalAlign=middle;whiteSpace=wrap;rounded=0;" vertex="1" parent="1">
          <mxGeometry x="476" y="442.5" width="10" height="30" as="geometry" />
        </mxCell>
        <mxCell id="VM5_dwGP6nj6GCOUaIYR-9" value="Lorem ipsum dolor sit amet, consectetur adipisicing elit, sed do eiusmod tempor inci&amp;nbsp;" style="text;spacingTop=-5;whiteSpace=wrap;html=1;align=left;fontSize=12;fontFamily=Helvetica;fillColor=none;strokeColor=none;" vertex="1" parent="1">
          <mxGeometry x="486" y="570" width="130" height="57.5" as="geometry" />
        </mxCell>
        <mxCell id="VM5_dwGP6nj6GCOUaIYR-10" value="Learn more" style="strokeWidth=1;shadow=0;dashed=0;align=center;html=1;shape=mxgraph.mockup.buttons.button;strokeColor=#666666;fontColor=#ffffff;mainText=;buttonStyle=round;fontSize=17;fontStyle=1;fillColor=#008cff;whiteSpace=wrap;" vertex="1" parent="1">
          <mxGeometry x="496" y="640" width="100" height="35" as="geometry" />
        </mxCell>
        <mxCell id="VM5_dwGP6nj6GCOUaIYR-11" value="" style="verticalLabelPosition=bottom;shadow=0;dashed=0;align=center;html=1;verticalAlign=top;strokeWidth=1;shape=mxgraph.mockup.graphics.simpleIcon;strokeColor=#999999;" vertex="1" parent="1">
          <mxGeometry x="571" y="437.5" width="60" height="40" as="geometry" />
        </mxCell>
        <mxCell id="VM5_dwGP6nj6GCOUaIYR-12" value="Menu" style="text;html=1;align=center;verticalAlign=middle;whiteSpace=wrap;rounded=0;" vertex="1" parent="1">
          <mxGeometry x="571" y="442.5" width="60" height="30" as="geometry" />
        </mxCell>
        <mxCell id="VM5_dwGP6nj6GCOUaIYR-13" value="Picture car" style="text;html=1;align=center;verticalAlign=middle;whiteSpace=wrap;rounded=0;" vertex="1" parent="1">
          <mxGeometry x="516" y="520" width="60" height="30" as="geometry" />
        </mxCell>
        <mxCell id="VM5_dwGP6nj6GCOUaIYR-15" value="usernam" style="strokeWidth=1;shadow=0;dashed=0;align=center;html=1;shape=mxgraph.mockup.forms.rrect;fillColor=#ffffff;rSize=0;fontColor=#666666;align=left;spacingLeft=3;strokeColor=#999999;" vertex="1" parent="1">
          <mxGeometry x="910" y="552" width="350" height="18" as="geometry" />
        </mxCell>
        <mxCell id="VM5_dwGP6nj6GCOUaIYR-17" value="password" style="strokeWidth=1;shadow=0;dashed=0;align=center;html=1;shape=mxgraph.mockup.forms.rrect;fillColor=#ffffff;rSize=0;fontColor=#666666;align=left;spacingLeft=3;strokeColor=#999999;" vertex="1" parent="1">
          <mxGeometry x="910" y="622" width="350" height="18" as="geometry" />
        </mxCell>
        <mxCell id="VM5_dwGP6nj6GCOUaIYR-25" value="Login" style="strokeWidth=1;shadow=0;dashed=0;align=center;html=1;shape=mxgraph.mockup.buttons.button;strokeColor=#666666;fontColor=#ffffff;mainText=;buttonStyle=round;fontSize=17;fontStyle=1;fillColor=#008cff;whiteSpace=wrap;" vertex="1" parent="1">
          <mxGeometry x="1035" y="690" width="100" height="35" as="geometry" />
        </mxCell>
        <mxCell id="VM5_dwGP6nj6GCOUaIYR-27" value="" style="verticalLabelPosition=bottom;shadow=0;dashed=0;align=center;html=1;verticalAlign=top;strokeWidth=1;shape=mxgraph.mockup.containers.userMale;strokeColor=#666666;strokeColor2=#008cff;" vertex="1" parent="1">
          <mxGeometry x="1024" y="320" width="100" height="100" as="geometry" />
        </mxCell>
        <mxCell id="VM5_dwGP6nj6GCOUaIYR-28" value="&lt;font face=&quot;Times New Roman&quot;&gt;&lt;span style=&quot;font-size: 36px;&quot;&gt;Login&lt;/span&gt;&lt;/font&gt;" style="text;html=1;align=center;verticalAlign=middle;whiteSpace=wrap;rounded=0;" vertex="1" parent="1">
          <mxGeometry x="994" y="470" width="160" height="30" as="geometry" />
        </mxCell>
      </root>
    </mxGraphModel>
  </diagram>
</mxfile>
